<?xml version="1.0" encoding="UTF-8"?><svg id="Camada_2" xmlns="http://www.w3.org/2000/svg" xmlns:xlink="http://www.w3.org/1999/xlink" viewBox="0 0 193.01 193.01"><defs><style>.cls-1{fill:url(#Gradiente_sem_nome_8);}.cls-1,.cls-2,.cls-3,.cls-4{stroke:#fcfefe;stroke-miterlimit:10;stroke-width:1.12px;}.cls-2{fill:url(#Gradiente_sem_nome_8-3);}.cls-3{fill:url(#Gradiente_sem_nome_8-2);}.cls-4{fill:url(#Gradiente_sem_nome_8-4);}.cls-5{fill:#0f7b61;opacity:.5;}</style><linearGradient id="Gradiente_sem_nome_8" x1="146.91" y1="145.38" x2="47.97" y2="46.44" gradientTransform="matrix(1, 0, 0, 1, 0, 0)" gradientUnits="userSpaceOnUse"><stop offset="0" stop-color="#135f7c"/><stop offset=".19" stop-color="#0f6776"/><stop offset=".35" stop-color="#0e6d72"/><stop offset=".37" stop-color="#0e6e70"/><stop offset=".5" stop-color="#0e746a"/><stop offset=".66" stop-color="#0e7964"/><stop offset=".8" stop-color="#0f7b62"/><stop offset=".91" stop-color="#0f7b61"/><stop offset=".92" stop-color="#0f7b61"/><stop offset="1" stop-color="#0f7b61"/></linearGradient><linearGradient id="Gradiente_sem_nome_8-2" x1="121.96" y1="169.88" x2="70.89" y2="118.81" xlink:href="#Gradiente_sem_nome_8"/><linearGradient id="Gradiente_sem_nome_8-3" x1="110.54" y1="94.07" x2="77.98" y2="61.52" xlink:href="#Gradiente_sem_nome_8"/><linearGradient id="Gradiente_sem_nome_8-4" x1="117.04" y1="100.16" x2="96.69" y2="79.8" xlink:href="#Gradiente_sem_nome_8"/></defs><g id="Camada_1-2"><g><circle class="cls-5" cx="96.51" cy="96.51" r="96.51"/><g><path class="cls-1" d="M58.96,39.86h81.61v111.86H58.13c-5.41,0-9.81-4.4-9.81-9.81V50.49c0-5.87,4.76-10.63,10.63-10.63Z"/><path class="cls-3" d="M56.31,136.69h83.5c.42,0,.76,.34,.76,.76v13.51c0,.42-.34,.76-.76,.76H55.36c-3.89,0-7.04-3.15-7.04-7.04h0c0-4.41,3.58-7.99,7.99-7.99Z"/><polygon class="cls-2" points="120.58 71.56 113.09 64.08 102.33 63.94 94.26 72.01 86.19 63.94 75.42 64.08 67.94 71.56 67.94 84.03 94.17 110.26 94.35 110.26 120.58 84.03 120.58 71.56"/><polygon class="cls-4" points="123.32 86.08 118.64 81.4 111.91 81.32 106.87 86.36 101.82 81.32 95.09 81.4 90.41 86.08 90.41 93.88 106.81 110.28 106.92 110.28 123.32 93.88 123.32 86.08"/></g></g></g></svg>