<?xml version="1.0" encoding="UTF-8"?><svg id="Camada_2" xmlns="http://www.w3.org/2000/svg" xmlns:xlink="http://www.w3.org/1999/xlink" viewBox="0 0 193.01 193.01"><defs><style>.cls-1{fill:url(#Gradiente_sem_nome_8);}.cls-1,.cls-2,.cls-3,.cls-4,.cls-5,.cls-6,.cls-7,.cls-8{stroke:#fcfefe;stroke-miterlimit:10;}.cls-1,.cls-3,.cls-4,.cls-5{stroke-width:1.12px;}.cls-2{fill:url(#Gradiente_sem_nome_8-5);}.cls-2,.cls-6,.cls-7,.cls-8{stroke-width:.56px;}.cls-3{fill:url(#Gradiente_sem_nome_8-3);}.cls-4{fill:url(#Gradiente_sem_nome_8-2);}.cls-5{fill:url(#Gradiente_sem_nome_8-4);}.cls-6{fill:url(#Gradiente_sem_nome_8-6);}.cls-9{fill:#0f7b61;opacity:.5;}.cls-7{fill:url(#Gradiente_sem_nome_8-8);}.cls-8{fill:url(#Gradiente_sem_nome_8-7);}</style><linearGradient id="Gradiente_sem_nome_8" x1="78.28" y1="75.99" x2="62.18" y2="59.89" gradientTransform="matrix(1, 0, 0, 1, 0, 0)" gradientUnits="userSpaceOnUse"><stop offset="0" stop-color="#135f7c"/><stop offset=".19" stop-color="#0f6776"/><stop offset=".35" stop-color="#0e6d72"/><stop offset=".37" stop-color="#0e6e70"/><stop offset=".5" stop-color="#0e746a"/><stop offset=".66" stop-color="#0e7964"/><stop offset=".8" stop-color="#0f7b62"/><stop offset=".91" stop-color="#0f7b61"/><stop offset=".92" stop-color="#0f7b61"/><stop offset="1" stop-color="#0f7b61"/></linearGradient><linearGradient id="Gradiente_sem_nome_8-2" x1="129.86" y1="76.22" x2="113.75" y2="60.11" xlink:href="#Gradiente_sem_nome_8"/><linearGradient id="Gradiente_sem_nome_8-3" x1="87.56" y1="121.06" x2="52.74" y2="86.24" xlink:href="#Gradiente_sem_nome_8"/><linearGradient id="Gradiente_sem_nome_8-4" x1="139.17" y1="128.79" x2="104.35" y2="93.97" xlink:href="#Gradiente_sem_nome_8"/><linearGradient id="Gradiente_sem_nome_8-5" x1="72.5" y1="96.94" x2="67.92" y2="92.36" xlink:href="#Gradiente_sem_nome_8"/><linearGradient id="Gradiente_sem_nome_8-6" x1="75.75" y1="111.61" x2="64.71" y2="100.57" xlink:href="#Gradiente_sem_nome_8"/><linearGradient id="Gradiente_sem_nome_8-7" x1="123.55" y1="97.74" x2="119.68" y2="93.87" xlink:href="#Gradiente_sem_nome_8"/><linearGradient id="Gradiente_sem_nome_8-8" x1="126.3" y1="110.15" x2="116.97" y2="100.82" xlink:href="#Gradiente_sem_nome_8"/></defs><g id="Camada_1-2"><g><circle class="cls-9" cx="96.51" cy="96.51" r="96.51"/><g><polygon class="cls-1" points="80.44 73.84 80.44 62.05 70.23 56.15 60.02 62.05 60.02 73.84 70.23 79.73 80.44 73.84"/><polygon class="cls-4" points="132.02 74.06 132.02 62.27 121.81 56.37 111.6 62.27 111.6 74.06 121.81 79.95 132.02 74.06"/><polygon class="cls-3" points="93.59 100.86 81.87 80.55 58.42 80.55 46.7 100.86 54.56 114.47 54.56 114.48 62.35 127.98 62.4 127.98 66.15 134.48 74.14 134.48 77.9 127.98 77.93 127.98 81.86 121.16 81.87 121.16 93.59 100.86"/><polygon class="cls-5" points="98.32 114.17 110.04 134.48 133.48 134.48 145.21 114.17 137.35 100.56 137.35 100.55 129.56 87.06 129.51 87.06 125.75 80.55 117.77 80.55 114.01 87.06 113.98 87.06 110.05 93.87 110.04 93.87 98.32 114.17"/><polygon class="cls-2" points="73.9 93.76 72.85 92.72 71.34 92.7 70.21 93.83 69.07 92.7 67.56 92.72 66.52 93.76 66.52 95.51 70.19 99.19 70.19 99.22 70.21 99.2 70.22 99.22 70.22 99.19 73.9 95.51 73.9 93.76"/><path class="cls-6" d="M70.23,98.29c-4.31,0-7.8,3.49-7.8,7.8s3.49,7.8,7.8,7.8,7.8-3.49,7.8-7.8-3.49-7.8-7.8-7.8Zm.05,13.47c-3.16,0-5.71-2.56-5.71-5.71s2.56-5.71,5.71-5.71,5.71,2.56,5.71,5.71-2.56,5.71-5.71,5.71Z"/><polygon class="cls-8" points="124.74 95.05 123.85 94.17 122.57 94.15 121.61 95.11 120.66 94.15 119.38 94.17 118.49 95.05 118.49 96.53 121.6 99.65 121.6 99.67 121.61 99.66 121.62 99.67 121.62 99.65 124.74 96.53 124.74 95.05"/><path class="cls-7" d="M121.63,98.88c-3.65,0-6.6,2.96-6.6,6.6s2.96,6.6,6.6,6.6,6.6-2.96,6.6-6.6-2.96-6.6-6.6-6.6Zm.05,11.4c-2.67,0-4.83-2.16-4.83-4.83s2.16-4.83,4.83-4.83,4.83,2.16,4.83,4.83-2.16,4.83-4.83,4.83Z"/></g></g></g></svg>